<svg xmlns="http://www.w3.org/2000/svg" width="820" height="520" viewBox="0 0 820 520" role="img">
<rect width="100%" height="100%" fill="#ffffff"/>
<text x="34.00" y="42.00" font-family="Arial, sans-serif" font-size="23" font-weight="700" fill="#0f172a">Run 85 Metrics</text>
<text x="34.00" y="68.00" font-family="Arial, sans-serif" font-size="13" font-weight="400" fill="#475569">fit_status=overfit_risk / device=mps / tokens_per_sec=29972.755193</text>
<rect x="48" y="108" width="710" height="170" rx="8" fill="#f8fafc" stroke="#cbd5e1"/>
<text x="66.00" y="136.00" font-family="Arial, sans-serif" font-size="16" font-weight="700" fill="#0f172a">Loss Snapshot</text>
<text x="66.00" y="176.00" font-family="Arial, sans-serif" font-size="12" font-weight="400" fill="#334155">initial train</text>
<rect x="193" y="162" width="480.00" height="18" rx="4" fill="#2563eb" opacity="0.82"/>
<text x="681.00" y="176.00" font-family="Arial, sans-serif" font-size="12" font-weight="400" fill="#0f172a">6.4281</text>
<text x="66.00" y="204.00" font-family="Arial, sans-serif" font-size="12" font-weight="400" fill="#334155">final train</text>
<rect x="193" y="190" width="411.99" height="18" rx="4" fill="#2563eb" opacity="0.82"/>
<text x="612.99" y="204.00" font-family="Arial, sans-serif" font-size="12" font-weight="400" fill="#0f172a">5.5173</text>
<text x="66.00" y="232.00" font-family="Arial, sans-serif" font-size="12" font-weight="400" fill="#334155">initial val</text>
<rect x="193" y="218" width="478.84" height="18" rx="4" fill="#2563eb" opacity="0.82"/>
<text x="679.84" y="232.00" font-family="Arial, sans-serif" font-size="12" font-weight="400" fill="#0f172a">6.4125</text>
<text x="66.00" y="260.00" font-family="Arial, sans-serif" font-size="12" font-weight="400" fill="#334155">final val</text>
<rect x="193" y="246" width="415.15" height="18" rx="4" fill="#2563eb" opacity="0.82"/>
<text x="616.15" y="260.00" font-family="Arial, sans-serif" font-size="12" font-weight="400" fill="#0f172a">5.5596</text>
<rect x="48" y="338" width="710" height="125" rx="8" fill="#f8fafc" stroke="#cbd5e1"/>
<text x="66.00" y="366.00" font-family="Arial, sans-serif" font-size="16" font-weight="700" fill="#0f172a">Overfit Signals</text>
<text x="66.00" y="406.00" font-family="Arial, sans-serif" font-size="12" font-weight="400" fill="#334155">final gap</text>
<rect x="193" y="392" width="112.89" height="18" rx="4" fill="#7c3aed" opacity="0.82"/>
<text x="313.89" y="406.00" font-family="Arial, sans-serif" font-size="12" font-weight="400" fill="#0f172a">0.0423</text>
<text x="66.00" y="434.00" font-family="Arial, sans-serif" font-size="12" font-weight="400" fill="#334155">gap delta</text>
<rect x="193" y="420" width="154.36" height="18" rx="4" fill="#7c3aed" opacity="0.82"/>
<text x="355.36" y="434.00" font-family="Arial, sans-serif" font-size="12" font-weight="400" fill="#0f172a">0.0579</text>
<text x="66.00" y="462.00" font-family="Arial, sans-serif" font-size="12" font-weight="400" fill="#334155">improve gap</text>
<rect x="193" y="448" width="154.36" height="18" rx="4" fill="#7c3aed" opacity="0.82"/>
<text x="355.36" y="462.00" font-family="Arial, sans-serif" font-size="12" font-weight="400" fill="#0f172a">0.0579</text>
<text x="66.00" y="490.00" font-family="Arial, sans-serif" font-size="12" font-weight="400" fill="#334155">overfit score</text>
<rect x="193" y="476" width="421.60" height="18" rx="4" fill="#7c3aed" opacity="0.82"/>
<text x="622.60" y="490.00" font-family="Arial, sans-serif" font-size="12" font-weight="400" fill="#0f172a">0.1581</text>
</svg>