<svg xmlns="http://www.w3.org/2000/svg" width="820" height="520" viewBox="0 0 820 520" role="img">
<rect width="100%" height="100%" fill="#ffffff"/>
<text x="34.00" y="42.00" font-family="Arial, sans-serif" font-size="23" font-weight="700" fill="#0f172a">Run 40 Metrics</text>
<text x="34.00" y="68.00" font-family="Arial, sans-serif" font-size="13" font-weight="400" fill="#475569">fit_status=generalizing / device=mps / tokens_per_sec=28259.000814</text>
<rect x="48" y="108" width="710" height="170" rx="8" fill="#f8fafc" stroke="#cbd5e1"/>
<text x="66.00" y="136.00" font-family="Arial, sans-serif" font-size="16" font-weight="700" fill="#0f172a">Loss Snapshot</text>
<text x="66.00" y="176.00" font-family="Arial, sans-serif" font-size="12" font-weight="400" fill="#334155">initial train</text>
<rect x="193" y="162" width="480.00" height="18" rx="4" fill="#2563eb" opacity="0.82"/>
<text x="681.00" y="176.00" font-family="Arial, sans-serif" font-size="12" font-weight="400" fill="#0f172a">6.4248</text>
<text x="66.00" y="204.00" font-family="Arial, sans-serif" font-size="12" font-weight="400" fill="#334155">final train</text>
<rect x="193" y="190" width="411.66" height="18" rx="4" fill="#2563eb" opacity="0.82"/>
<text x="612.66" y="204.00" font-family="Arial, sans-serif" font-size="12" font-weight="400" fill="#0f172a">5.5101</text>
<text x="66.00" y="232.00" font-family="Arial, sans-serif" font-size="12" font-weight="400" fill="#334155">initial val</text>
<rect x="193" y="218" width="479.78" height="18" rx="4" fill="#2563eb" opacity="0.82"/>
<text x="680.78" y="232.00" font-family="Arial, sans-serif" font-size="12" font-weight="400" fill="#0f172a">6.4219</text>
<text x="66.00" y="260.00" font-family="Arial, sans-serif" font-size="12" font-weight="400" fill="#334155">final val</text>
<rect x="193" y="246" width="415.01" height="18" rx="4" fill="#2563eb" opacity="0.82"/>
<text x="616.01" y="260.00" font-family="Arial, sans-serif" font-size="12" font-weight="400" fill="#0f172a">5.5548</text>
<rect x="48" y="338" width="710" height="125" rx="8" fill="#f8fafc" stroke="#cbd5e1"/>
<text x="66.00" y="366.00" font-family="Arial, sans-serif" font-size="16" font-weight="700" fill="#0f172a">Overfit Signals</text>
<text x="66.00" y="406.00" font-family="Arial, sans-serif" font-size="12" font-weight="400" fill="#334155">final gap</text>
<rect x="193" y="392" width="119.28" height="18" rx="4" fill="#7c3aed" opacity="0.82"/>
<text x="320.28" y="406.00" font-family="Arial, sans-serif" font-size="12" font-weight="400" fill="#0f172a">0.0447</text>
<text x="66.00" y="434.00" font-family="Arial, sans-serif" font-size="12" font-weight="400" fill="#334155">gap delta</text>
<rect x="193" y="420" width="127.02" height="18" rx="4" fill="#7c3aed" opacity="0.82"/>
<text x="328.02" y="434.00" font-family="Arial, sans-serif" font-size="12" font-weight="400" fill="#0f172a">0.0476</text>
<text x="66.00" y="462.00" font-family="Arial, sans-serif" font-size="12" font-weight="400" fill="#334155">improve gap</text>
<rect x="193" y="448" width="127.02" height="18" rx="4" fill="#7c3aed" opacity="0.82"/>
<text x="328.02" y="462.00" font-family="Arial, sans-serif" font-size="12" font-weight="400" fill="#0f172a">0.0476</text>
<text x="66.00" y="490.00" font-family="Arial, sans-serif" font-size="12" font-weight="400" fill="#334155">overfit score</text>
<rect x="193" y="476" width="373.32" height="18" rx="4" fill="#7c3aed" opacity="0.82"/>
<text x="574.32" y="490.00" font-family="Arial, sans-serif" font-size="12" font-weight="400" fill="#0f172a">0.1400</text>
</svg>