<svg xmlns="http://www.w3.org/2000/svg" width="820" height="520" viewBox="0 0 820 520" role="img">
<rect width="100%" height="100%" fill="#ffffff"/>
<text x="34.00" y="42.00" font-family="Arial, sans-serif" font-size="23" font-weight="700" fill="#0f172a">Run 20 Metrics</text>
<text x="34.00" y="68.00" font-family="Arial, sans-serif" font-size="13" font-weight="400" fill="#475569">fit_status=overfit_risk / device=mps / tokens_per_sec=38171.137181</text>
<rect x="48" y="108" width="710" height="170" rx="8" fill="#f8fafc" stroke="#cbd5e1"/>
<text x="66.00" y="136.00" font-family="Arial, sans-serif" font-size="16" font-weight="700" fill="#0f172a">Loss Snapshot</text>
<text x="66.00" y="176.00" font-family="Arial, sans-serif" font-size="12" font-weight="400" fill="#334155">initial train</text>
<rect x="193" y="162" width="480.00" height="18" rx="4" fill="#2563eb" opacity="0.82"/>
<text x="681.00" y="176.00" font-family="Arial, sans-serif" font-size="12" font-weight="400" fill="#0f172a">6.4208</text>
<text x="66.00" y="204.00" font-family="Arial, sans-serif" font-size="12" font-weight="400" fill="#334155">final train</text>
<rect x="193" y="190" width="427.44" height="18" rx="4" fill="#2563eb" opacity="0.82"/>
<text x="628.44" y="204.00" font-family="Arial, sans-serif" font-size="12" font-weight="400" fill="#0f172a">5.7177</text>
<text x="66.00" y="232.00" font-family="Arial, sans-serif" font-size="12" font-weight="400" fill="#334155">initial val</text>
<rect x="193" y="218" width="477.80" height="18" rx="4" fill="#2563eb" opacity="0.82"/>
<text x="678.80" y="232.00" font-family="Arial, sans-serif" font-size="12" font-weight="400" fill="#0f172a">6.3914</text>
<text x="66.00" y="260.00" font-family="Arial, sans-serif" font-size="12" font-weight="400" fill="#334155">final val</text>
<rect x="193" y="246" width="430.26" height="18" rx="4" fill="#2563eb" opacity="0.82"/>
<text x="631.26" y="260.00" font-family="Arial, sans-serif" font-size="12" font-weight="400" fill="#0f172a">5.7554</text>
<rect x="48" y="338" width="710" height="125" rx="8" fill="#f8fafc" stroke="#cbd5e1"/>
<text x="66.00" y="366.00" font-family="Arial, sans-serif" font-size="16" font-weight="700" fill="#0f172a">Overfit Signals</text>
<text x="66.00" y="406.00" font-family="Arial, sans-serif" font-size="12" font-weight="400" fill="#334155">final gap</text>
<rect x="193" y="392" width="100.62" height="18" rx="4" fill="#7c3aed" opacity="0.82"/>
<text x="301.62" y="406.00" font-family="Arial, sans-serif" font-size="12" font-weight="400" fill="#0f172a">0.0377</text>
<text x="66.00" y="434.00" font-family="Arial, sans-serif" font-size="12" font-weight="400" fill="#334155">gap delta</text>
<rect x="193" y="420" width="179.00" height="18" rx="4" fill="#7c3aed" opacity="0.82"/>
<text x="380.00" y="434.00" font-family="Arial, sans-serif" font-size="12" font-weight="400" fill="#0f172a">0.0671</text>
<text x="66.00" y="462.00" font-family="Arial, sans-serif" font-size="12" font-weight="400" fill="#334155">improve gap</text>
<rect x="193" y="448" width="179.00" height="18" rx="4" fill="#7c3aed" opacity="0.82"/>
<text x="380.00" y="462.00" font-family="Arial, sans-serif" font-size="12" font-weight="400" fill="#0f172a">0.0671</text>
<text x="66.00" y="490.00" font-family="Arial, sans-serif" font-size="12" font-weight="400" fill="#334155">overfit score</text>
<rect x="193" y="476" width="458.62" height="18" rx="4" fill="#7c3aed" opacity="0.82"/>
<text x="659.62" y="490.00" font-family="Arial, sans-serif" font-size="12" font-weight="400" fill="#0f172a">0.1720</text>
</svg>